#!OML:ASF H:\Dans Jumps\Project 1\Capture day 1\Session 1\subject.ASF
:FULLY-SPECIFIED
:DEGREES
482
root 0.735973 17.7466 6.46282 5.33668 1.2768 -1.92743
lowerback -1.94704 -0.390434 -0.0485833
upperback 1.93875 -0.563901 1.58224
thorax 3.09971 -0.301234 1.62785
lowerneck -13.3875 -0.274688 -2.16111
upperneck 25.0818 -0.153116 1.1279
head 10.2061 -0.142826 0.746673
rclavicle 4.96962e-016 -9.14409e-015
rhumerus -22.0912 -12.1733 -85.0923
rradius 26.7194
rwrist 30.2815
rhand -19.9503 -26.9513
rfingers 7.12502
rthumb 6.38779 -56.835
lclavicle 4.96962e-016 -9.14409e-015
lhumerus -16.4185 6.1531 89.8709
lradius 14.0428
lwrist -3.64832
lhand -25.8963 -5.85545
lfingers 7.12502
lthumb 0.645944 24.1233
rfemur -13.2756 -1.90967 20.3214
rtibia 19.5268
rfoot -10.7099 -0.301357
rtoes 17.6925
lfemur -11.9674 6.57571 -17.3746
ltibia 18.3027
lfoot -9.36275 2.395
ltoes -3.03507
483
root 0.737327 17.7462 6.46391 5.3158 1.28338 -1.93933
lowerback -1.9545 -0.389152 -0.0384632
upperback 1.93358 -0.562737 1.58973
thorax 3.09853 -0.300492 1.6299
lowerneck -13.3927 -0.284723 -2.17039
upperneck 25.0209 -0.165368 1.13047
head 10.1853 -0.148723 0.747289
rclavicle 4.14963e-015 3.37934e-015
rhumerus -22.0299 -12.0871 -85.1495
rradius 26.7909
rwrist 30.2013
rhand -19.9979 -26.896
rfingers 7.12502
rthumb 6.3418 -56.7811
lclavicle 4.14963e-015 3.37934e-015
lhumerus -16.4574 6.14189 89.8786
lradius 14.029
lwrist -3.6463
lhand -25.892 -5.89129
lfingers 7.12502
lthumb 0.650085 24.0875
rfemur -13.2408 -1.89638 20.3284
rtibia 19.5138
rfoot -10.7116 -0.321933
rtoes 17.7015
lfemur -11.944 6.57119 -17.3621
ltibia 18.3096
lfoot -9.37812 2.39772
ltoes -3.03555
484
root 0.738892 17.7459 6.46514 5.29703 1.29207 -1.94387
lowerback -1.96407 -0.390158 -0.034094
upperback 1.92734 -0.564377 1.5951
thorax 3.09757 -0.301247 1.63285
lowerneck -13.3895 -0.29755 -2.17871
upperneck 24.9502 -0.181272 1.13034
head 10.1594 -0.156505 0.746269
rclavicle 3.35449e-015 4.96962e-015
rhumerus -21.9688 -12.0185 -85.2008
rradius 26.8406
rwrist 30.1357
rhand -20.0405 -26.8516
rfingers 7.12502
rthumb 6.3007 -56.7379
lclavicle 3.35449e-015 4.96962e-015
lhumerus -16.505 6.15492 89.8789
lradius 14.0119
lwrist -3.6668
lhand -25.8888 -5.92926
lfingers 7.12502
lthumb 0.653106 24.0495
rfemur -13.2085 -1.89881 20.3268
rtibia 19.5033
rfoot -10.717 -0.330191
rtoes 17.7022
lfemur -11.9186 6.56746 -17.3592
ltibia 18.31
lfoot -9.3919 2.39626
ltoes -3.03697
485
root 0.740607 17.7458 6.46652 5.28089 1.30287 -1.94186
lowerback -1.97711 -0.392976 -0.0349882
upperback 1.92139 -0.568234 1.59835
thorax 3.09894 -0.30321 1.63646
lowerneck -13.3849 -0.310864 -2.18457
upperneck 24.8732 -0.197943 1.12813
head 10.131 -0.164629 0.743967
rclavicle -1.44119e-015 -1.98785e-015
rhumerus -21.9116 -11.9565 -85.2491
rradius 26.8842
rwrist 30.0697
rhand -20.0747 -26.8355
rfingers 7.12502
rthumb 6.26771 -56.7227
lclavicle -1.44119e-015 -1.98785e-015
lhumerus -16.5565 6.19019 89.8724
lradius 13.9881
lwrist -3.71011
lhand -25.8809 -5.96194
lfingers 7.12502
lthumb 0.660793 24.0168
rfemur -13.1794 -1.91531 20.3178
rtibia 19.4962
rfoot -10.7258 -0.326926
rtoes 17.7043
lfemur -11.892 6.56385 -17.3647
ltibia 18.3037
lfoot -9.40247 2.3908
ltoes -3.04416
486
root 0.742483 17.7457 6.46806 5.26683 1.31357 -1.93556
lowerback -1.99402 -0.396489 -0.038654
upperback 1.91607 -0.572913 1.59967
thorax 3.10318 -0.305633 1.63957
lowerneck -13.3682 -0.326023 -2.18912
upperneck 24.7791 -0.21711 1.12336
head 10.0942 -0.174029 0.740141
rclavicle -3.97569e-016 1.74931e-014
rhumerus -21.8592 -11.9066 -85.2934
rradius 26.9211
rwrist 30.0119
rhand -20.0944 -26.8484
rfingers 7.12502
rthumb 6.2487 -56.7362
lclavicle -3.97569e-016 1.74931e-014
lhumerus -16.6152 6.2343 89.8606
lradius 13.9653
lwrist -3.76184
lhand -25.8695 -5.97096
lfingers 7.12502
lthumb 0.671789 24.0077
rfemur -13.1531 -1.94229 20.3037
rtibia 19.4918
rfoot -10.7375 -0.314165
rtoes 17.7
lfemur -11.8638 6.56097 -17.3761
ltibia 18.2923
lfoot -9.41189 2.38327
ltoes -3.04952
487
root 0.744512 17.7456 6.46974 5.25359 1.32384 -1.928
lowerback -2.01391 -0.400424 -0.0423358
upperback 1.91256 -0.578189 1.60047
thorax 3.11099 -0.308368 1.6421
lowerneck -13.3475 -0.342623 -2.19415
upperneck 24.6736 -0.238112 1.11803
head 10.0526 -0.184346 0.735928
rclavicle -4.72114e-015 1.55052e-014
rhumerus -21.8111 -11.8662 -85.3327
rradius 26.9531
rwrist 29.9674
rhand -20.105 -26.8761
rfingers 7.12502
rthumb 6.23849 -56.7643
lclavicle -4.72114e-015 1.55052e-014
lhumerus -16.6769 6.28041 89.8462
lradius 13.9407
lwrist -3.81949
lhand -25.8581 -5.96046
lfingers 7.12502
lthumb 0.682789 24.0182
rfemur -13.1271 -1.97653 20.2877
rtibia 19.488
rfoot -10.7485 -0.293686
rtoes 17.6953
lfemur -11.8343 6.5585 -17.3896
ltibia 18.2789
lfoot -9.42209 2.37365
ltoes -3.03041
